<svg width="90" height="90" viewBox="0 0 90 90" fill="none" xmlns="http://www.w3.org/2000/svg">
<path fill-rule="evenodd" clip-rule="evenodd" d="M27 27V22.5C27 15.0442 33.0442 9 40.5 9H49.5C56.9558 9 63 15.0442 63 22.5V27H72C76.9706 27 81 31.0294 81 36V52.0684C69.7934 56.2263 57.667 58.4998 45.0001 58.4998C32.3332 58.4998 20.2066 56.2263 9 52.0684V36C9 31.0294 13.0294 27 18 27H27ZM36 22.5C36 20.0147 38.0147 18 40.5 18H49.5C51.9853 18 54 20.0147 54 22.5V27H36V22.5ZM40.5 45C40.5 42.5147 42.5147 40.5 45 40.5H45.045C47.5303 40.5 49.545 42.5147 49.545 45C49.545 47.4853 47.5303 49.5 45.045 49.5H45C42.5147 49.5 40.5 47.4853 40.5 45Z" stroke="#324150" stroke-width="5"/>
<path d="M9 61.6152V72C9 76.9706 13.0294 81 18 81H72C76.9706 81 81 76.9706 81 72V61.6152C69.6925 65.432 57.5838 67.4998 45.0001 67.4998C32.4163 67.4998 20.3076 65.432 9 61.6152Z" stroke="#324150" stroke-width="5"/>
</svg>
