<svg width="82" height="77" viewBox="0 0 82 77" fill="none" xmlns="http://www.w3.org/2000/svg">
<line x1="23.5278" y1="8.55556" x2="23.5278" y2="68.4444" stroke="#AB8D6B" stroke-width="4.27778"/>
<line x1="42.7778" y1="10.6944" x2="21.3889" y2="10.6944" stroke="#AB8D6B" stroke-width="4.27778"/>
<line x1="72.7222" y1="2.13889" x2="8.5555" y2="2.13889" stroke="#AB8D6B" stroke-width="4.27778"/>
<mask id="path-4-inside-1_15_81" fill="white">
<path d="M17.1111 8.55555C17.1111 10.2477 16.6093 11.9018 15.6692 13.3088C14.7291 14.7157 13.3929 15.8123 11.8296 16.4599C10.2663 17.1074 8.54606 17.2768 6.88645 16.9467C5.22683 16.6166 3.70238 15.8018 2.50586 14.6052C1.30935 13.4087 0.494511 11.8843 0.164393 10.2247C-0.165725 8.56505 0.00370315 6.84481 0.651253 5.28149C1.2988 3.71816 2.39539 2.38197 3.80234 1.44187C5.2093 0.501774 6.86343 -2.01784e-08 8.55555 0V4.27778C7.70949 4.27778 6.88243 4.52866 6.17895 4.99871C5.47547 5.46876 4.92718 6.13686 4.6034 6.91852C4.27963 7.70018 4.19491 8.5603 4.35997 9.39011C4.52503 10.2199 4.93245 10.9821 5.53071 11.5804C6.12897 12.1787 6.89119 12.5861 7.721 12.7511C8.55081 12.9162 9.41093 12.8315 10.1926 12.5077C10.9743 12.1839 11.6423 11.6356 12.1124 10.9322C12.5824 10.2287 12.8333 9.40162 12.8333 8.55555L17.1111 8.55555Z"/>
</mask>
<path d="M17.1111 8.55555C17.1111 10.2477 16.6093 11.9018 15.6692 13.3088C14.7291 14.7157 13.3929 15.8123 11.8296 16.4599C10.2663 17.1074 8.54606 17.2768 6.88645 16.9467C5.22683 16.6166 3.70238 15.8018 2.50586 14.6052C1.30935 13.4087 0.494511 11.8843 0.164393 10.2247C-0.165725 8.56505 0.00370315 6.84481 0.651253 5.28149C1.2988 3.71816 2.39539 2.38197 3.80234 1.44187C5.2093 0.501774 6.86343 -2.01784e-08 8.55555 0V4.27778C7.70949 4.27778 6.88243 4.52866 6.17895 4.99871C5.47547 5.46876 4.92718 6.13686 4.6034 6.91852C4.27963 7.70018 4.19491 8.5603 4.35997 9.39011C4.52503 10.2199 4.93245 10.9821 5.53071 11.5804C6.12897 12.1787 6.89119 12.5861 7.721 12.7511C8.55081 12.9162 9.41093 12.8315 10.1926 12.5077C10.9743 12.1839 11.6423 11.6356 12.1124 10.9322C12.5824 10.2287 12.8333 9.40162 12.8333 8.55555L17.1111 8.55555Z" stroke="#AB8D6B" stroke-width="8.55555" mask="url(#path-4-inside-1_15_81)"/>
<mask id="path-5-inside-2_15_81" fill="white">
<path d="M64.1667 8.55555C64.1667 10.2477 64.6685 11.9018 65.6086 13.3088C66.5487 14.7157 67.8849 15.8123 69.4482 16.4599C71.0115 17.1074 72.7318 17.2768 74.3914 16.9467C76.051 16.6166 77.5755 15.8018 78.772 14.6052C79.9685 13.4087 80.7833 11.8843 81.1134 10.2247C81.4436 8.56505 81.2741 6.84481 80.6266 5.28149C79.979 3.71816 78.8824 2.38197 77.4755 1.44187C76.0685 0.501774 74.4144 -2.01784e-08 72.7223 0V4.27778C73.5683 4.27778 74.3954 4.52866 75.0989 4.99871C75.8024 5.46876 76.3507 6.13686 76.6744 6.91852C76.9982 7.70018 77.0829 8.5603 76.9179 9.39011C76.7528 10.2199 76.3454 10.9821 75.7471 11.5804C75.1489 12.1787 74.3866 12.5861 73.5568 12.7511C72.727 12.9162 71.8669 12.8315 71.0852 12.5077C70.3036 12.1839 69.6355 11.6356 69.1654 10.9322C68.6954 10.2287 68.4445 9.40162 68.4445 8.55555L64.1667 8.55555Z"/>
</mask>
<path d="M64.1667 8.55555C64.1667 10.2477 64.6685 11.9018 65.6086 13.3088C66.5487 14.7157 67.8849 15.8123 69.4482 16.4599C71.0115 17.1074 72.7318 17.2768 74.3914 16.9467C76.051 16.6166 77.5755 15.8018 78.772 14.6052C79.9685 13.4087 80.7833 11.8843 81.1134 10.2247C81.4436 8.56505 81.2741 6.84481 80.6266 5.28149C79.979 3.71816 78.8824 2.38197 77.4755 1.44187C76.0685 0.501774 74.4144 -2.01784e-08 72.7223 0V4.27778C73.5683 4.27778 74.3954 4.52866 75.0989 4.99871C75.8024 5.46876 76.3507 6.13686 76.6744 6.91852C76.9982 7.70018 77.0829 8.5603 76.9179 9.39011C76.7528 10.2199 76.3454 10.9821 75.7471 11.5804C75.1489 12.1787 74.3866 12.5861 73.5568 12.7511C72.727 12.9162 71.8669 12.8315 71.0852 12.5077C70.3036 12.1839 69.6355 11.6356 69.1654 10.9322C68.6954 10.2287 68.4445 9.40162 68.4445 8.55555L64.1667 8.55555Z" stroke="#AB8D6B" stroke-width="8.55555" mask="url(#path-5-inside-2_15_81)"/>
<line y1="-2.13889" x2="64.1667" y2="-2.13889" transform="matrix(-1 0 0 1 72.7222 77)" stroke="#AB8D6B" stroke-width="4.27778"/>
<mask id="path-7-inside-3_15_81" fill="white">
<path d="M17.1111 68.4444C17.1111 66.7523 16.6093 65.0982 15.6692 63.6912C14.7291 62.2843 13.3929 61.1877 11.8296 60.5401C10.2663 59.8926 8.54606 59.7232 6.88645 60.0533C5.22683 60.3834 3.70238 61.1982 2.50586 62.3948C1.30935 63.5913 0.494511 65.1157 0.164393 66.7753C-0.165725 68.435 0.00370315 70.1552 0.651253 71.7185C1.2988 73.2818 2.39539 74.618 3.80234 75.5581C5.2093 76.4982 6.86343 77 8.55555 77V72.7222C7.70949 72.7222 6.88243 72.4713 6.17895 72.0013C5.47547 71.5312 4.92718 70.8631 4.6034 70.0815C4.27963 69.2998 4.19491 68.4397 4.35997 67.6099C4.52503 66.7801 4.93245 66.0179 5.53071 65.4196C6.12897 64.8213 6.89119 64.4139 7.721 64.2489C8.55081 64.0838 9.41093 64.1685 10.1926 64.4923C10.9743 64.8161 11.6423 65.3644 12.1124 66.0678C12.5824 66.7713 12.8333 67.5984 12.8333 68.4444H17.1111Z"/>
</mask>
<path d="M17.1111 68.4444C17.1111 66.7523 16.6093 65.0982 15.6692 63.6912C14.7291 62.2843 13.3929 61.1877 11.8296 60.5401C10.2663 59.8926 8.54606 59.7232 6.88645 60.0533C5.22683 60.3834 3.70238 61.1982 2.50586 62.3948C1.30935 63.5913 0.494511 65.1157 0.164393 66.7753C-0.165725 68.435 0.00370315 70.1552 0.651253 71.7185C1.2988 73.2818 2.39539 74.618 3.80234 75.5581C5.2093 76.4982 6.86343 77 8.55555 77V72.7222C7.70949 72.7222 6.88243 72.4713 6.17895 72.0013C5.47547 71.5312 4.92718 70.8631 4.6034 70.0815C4.27963 69.2998 4.19491 68.4397 4.35997 67.6099C4.52503 66.7801 4.93245 66.0179 5.53071 65.4196C6.12897 64.8213 6.89119 64.4139 7.721 64.2489C8.55081 64.0838 9.41093 64.1685 10.1926 64.4923C10.9743 64.8161 11.6423 65.3644 12.1124 66.0678C12.5824 66.7713 12.8333 67.5984 12.8333 68.4444H17.1111Z" stroke="#AB8D6B" stroke-width="8.55555" mask="url(#path-7-inside-3_15_81)"/>
<mask id="path-8-inside-4_15_81" fill="white">
<path d="M64.1667 68.4444C64.1667 66.7523 64.6685 65.0982 65.6086 63.6912C66.5487 62.2843 67.8849 61.1877 69.4482 60.5401C71.0115 59.8926 72.7318 59.7232 74.3914 60.0533C76.051 60.3834 77.5755 61.1982 78.772 62.3948C79.9685 63.5913 80.7833 65.1157 81.1134 66.7753C81.4436 68.435 81.2741 70.1552 80.6266 71.7185C79.979 73.2818 78.8824 74.618 77.4755 75.5581C76.0685 76.4982 74.4144 77 72.7223 77V72.7222C73.5683 72.7222 74.3954 72.4713 75.0989 72.0013C75.8024 71.5312 76.3507 70.8631 76.6744 70.0815C76.9982 69.2998 77.0829 68.4397 76.9179 67.6099C76.7528 66.7801 76.3454 66.0179 75.7471 65.4196C75.1489 64.8213 74.3866 64.4139 73.5568 64.2489C72.727 64.0838 71.8669 64.1685 71.0852 64.4923C70.3036 64.8161 69.6355 65.3644 69.1654 66.0678C68.6954 66.7713 68.4445 67.5984 68.4445 68.4444H64.1667Z"/>
</mask>
<path d="M64.1667 68.4444C64.1667 66.7523 64.6685 65.0982 65.6086 63.6912C66.5487 62.2843 67.8849 61.1877 69.4482 60.5401C71.0115 59.8926 72.7318 59.7232 74.3914 60.0533C76.051 60.3834 77.5755 61.1982 78.772 62.3948C79.9685 63.5913 80.7833 65.1157 81.1134 66.7753C81.4436 68.435 81.2741 70.1552 80.6266 71.7185C79.979 73.2818 78.8824 74.618 77.4755 75.5581C76.0685 76.4982 74.4144 77 72.7223 77V72.7222C73.5683 72.7222 74.3954 72.4713 75.0989 72.0013C75.8024 71.5312 76.3507 70.8631 76.6744 70.0815C76.9982 69.2998 77.0829 68.4397 76.9179 67.6099C76.7528 66.7801 76.3454 66.0179 75.7471 65.4196C75.1489 64.8213 74.3866 64.4139 73.5568 64.2489C72.727 64.0838 71.8669 64.1685 71.0852 64.4923C70.3036 64.8161 69.6355 65.3644 69.1654 66.0678C68.6954 66.7713 68.4445 67.5984 68.4445 68.4444H64.1667Z" stroke="#AB8D6B" stroke-width="8.55555" mask="url(#path-8-inside-4_15_81)"/>
<line x1="59.8889" y1="10.6944" x2="47.0556" y2="10.6944" stroke="#AB8D6B" stroke-width="4.27778"/>
<line x1="32.0832" y1="8.55556" x2="32.0832" y2="68.4444" stroke="#AB8D6B" stroke-width="4.27778"/>
<line x1="40.6389" y1="8.55556" x2="40.6389" y2="68.4444" stroke="#AB8D6B" stroke-width="4.27778"/>
<line x1="49.1946" y1="8.55556" x2="49.1946" y2="68.4444" stroke="#AB8D6B" stroke-width="4.27778"/>
<line x1="57.75" y1="8.55556" x2="57.75" y2="68.4444" stroke="#AB8D6B" stroke-width="4.27778"/>
</svg>
