<svg width="101" height="93" viewBox="0 0 101 93" fill="none" xmlns="http://www.w3.org/2000/svg">
<path fill-rule="evenodd" clip-rule="evenodd" d="M50.1542 9.22388C52.9242 9.22388 55.1697 11.2887 55.1697 13.8358V19.9373L75.0028 27.2323L83.0192 23.5466C85.4967 22.4075 88.5093 23.3309 89.7481 25.6091C90.9869 27.8873 89.9826 30.6576 87.5051 31.7967L81.3203 34.6403L90.038 59.6356C90.6425 61.3687 90.0819 63.2667 88.607 64.4805C85.0611 67.3989 80.3663 69.179 75.2313 69.179C70.0964 69.179 65.4016 67.3989 61.8556 64.4805C60.3808 63.2667 59.8202 61.3687 60.4247 59.6356L69.0277 34.969L55.1697 29.8717V73.791H65.2005C67.9704 73.791 70.2159 75.8559 70.2159 78.403C70.2159 80.9501 67.9704 83.0149 65.2005 83.0149H35.108C32.338 83.0149 30.0926 80.9501 30.0926 78.403C30.0926 75.8559 32.338 73.791 35.108 73.791H45.1388V29.8717L31.2808 34.969L39.8838 59.6356C40.4883 61.3687 39.9277 63.2667 38.4528 64.4805C34.9069 67.3989 30.2121 69.179 25.0771 69.179C19.9422 69.179 15.2474 67.3989 11.7015 64.4805C10.2266 63.2667 9.66601 61.3687 10.2705 59.6356L18.9881 34.6403L12.8033 31.7967C10.3258 30.6576 9.32162 27.8873 10.5604 25.6091C11.7991 23.3309 14.8118 22.4075 17.2893 23.5466L25.3056 27.2323L45.1388 19.9373V13.8358C45.1388 11.2887 47.3843 9.22388 50.1542 9.22388ZM25.0771 47.3853L20.9733 59.1517C22.2251 59.6685 23.6128 59.9551 25.0771 59.9551C26.5415 59.9551 27.9292 59.6685 29.1809 59.1517L25.0771 47.3853ZM75.2313 47.3853L71.1275 59.1517C72.3793 59.6685 73.767 59.9551 75.2313 59.9551C76.6957 59.9551 78.0834 59.6685 79.3351 59.1517L75.2313 47.3853Z" stroke="#324150" stroke-width="5" stroke-linecap="round" stroke-linejoin="round"/>
</svg>
